<svg version="1.1" xmlns="http://www.w3.org/2000/svg"  xmlns:xlink="http://www.w3.org/1999/xlink" x="0px" y="0px" viewBox="0 0 1000 1000" enable-background="new 0 0 1000 1000" xml:space="preserve">
  <g><path d="M10,512.7c0,214,137.1,395.9,328.2,462.7c25.7,6.5,21.8-11.9,21.8-24.4V866c-148.6,17.5-154.6-81-164.6-97.4c-20.2-34.4-67.8-43.2-53.6-59.6c33.9-17.5,68.3,4.4,108.3,63.4c29,42.8,85.2,35.6,113.9,28.4c6.2-25.7,19.7-48.6,38-66.6C248.1,707,183.9,612.9,183.9,501.2c0-54.1,17.8-104,53-144.2c-22.3-66.4,2.1-123,5.4-131.4C305.8,219.7,371.8,271,377,275c36.2-9.7,77.4-15,123.6-15c46.4,0,87.9,5.4,124.3,15.2c12.4-9.4,73.7-53.3,132.8-48c3.2,8.4,27,63.8,6,129.2c35.5,40.3,53.5,90.5,53.5,144.9c0,112-64.6,206.1-218.9,233.2c25.8,25.4,41.7,60.7,41.7,99.8v123.2c0.9,9.8,0,19.7,16.5,19.7C850.4,911.9,990,728.6,990,512.8c0-270.7-219.4-490-490-490C229.3,22.7,10,242,10,512.7z"></path></g></svg>
