<svg version="1.1" xmlns="http://www.w3.org/2000/svg"  width="80" height="80" xmlns:xlink="http://www.w3.org/1999/xlink" x="0px" y="0px" viewBox="0 0 1000 1000" enable-background="new 0 0 1000 1000" xml:space="preserve">
<g><path d="M962.9,116.6c-38.8,23-81.9,39.7-127.7,48.8c-36.7-39.1-88.9-63.5-146.7-63.5c-111,0-201.1,90-201.1,201c0,15.7,1.8,31.1,5.2,45.8c-167.1-8.4-315.2-88.4-414.4-210.1c-17.3,29.6-27.2,64.2-27.2,101c0,69.8,35.5,131.3,89.4,167.3c-32.9-1.1-63.9-10.2-91.1-25.2c0,0.9,0,1.7,0,2.5c0,97.4,69.3,178.6,161.3,197.1c-16.8,4.6-34.6,7-53,7c-13,0-25.5-1.3-37.8-3.6c25.6,79.9,99.8,138,187.8,139.6c-68.8,53.9-155.5,86-249.7,86c-16.2,0-32.2-1-48-2.8c89,57,194.6,90.3,308.2,90.3c369.8,0,572-306.3,572-572c0-8.7-0.2-17.4-0.6-26c39.4-28.2,73.5-63.6,100.4-103.9c-36.1,16-74.8,26.8-115.4,31.7C916.1,202.9,947.9,163.5,962.9,116.6z"/></g>
</svg>